<svg width="40" height="40" viewBox="0 0 40 40" fill="none" xmlns="http://www.w3.org/2000/svg">
<g clip-path="url(#clip0_1237_59)">
<rect width="40" height="40" fill="black"/>
<path d="M0.65625 29V26.9492L2.47266 26.5977V14.3516L0.65625 14V11.9375H8.74219C10.0547 11.9375 11.1797 12.1406 12.1172 12.5469C13.0547 12.9531 13.7734 13.5352 14.2734 14.293C14.7812 15.0508 15.0352 15.9609 15.0352 17.0234C15.0352 18.0234 14.7852 18.918 14.2852 19.707C13.7852 20.4961 13.0898 21.1172 12.1992 21.5703C11.3086 22.0234 10.2812 22.2539 9.11719 22.2617H5.89453V26.5977L7.72266 26.9492V29H0.65625ZM11.6367 29L8.76562 21.6289L11.8477 20.8672L14.332 26.6094L15.7852 26.9492V29H11.6367ZM5.89453 19.625H8.68359C9.66797 19.625 10.4023 19.418 10.8867 19.0039C11.3789 18.582 11.625 17.9727 11.625 17.1758C11.625 16.3867 11.3828 15.7578 10.8984 15.2891C10.4141 14.8125 9.69531 14.5742 8.74219 14.5742H5.89453V19.625ZM17.1562 29V26.9492L18.9727 26.5977V14.3516L17.1562 14V11.9375H18.9727H24.0352L28.6875 23.832H28.7578L33.2578 11.9375H40.1484V14L38.3203 14.3516V26.5977L40.1484 26.9492V29H33.082V26.9492L34.9922 26.5977V23.3281L35.0508 15.6289L34.9805 15.6172L29.8828 28.7656H27.293L22.0781 15.7227L22.0078 15.7344L22.207 22.9766V26.5977L24.2227 26.9492V29H17.1562Z" fill="#FF859B"/>
<path d="M4.74414 22V21.6582L5.04688 21.5996V19.5586L4.74414 19.5V19.1562H6.0918C6.31055 19.1562 6.49805 19.1901 6.6543 19.2578C6.81055 19.3255 6.93034 19.4225 7.01367 19.5488C7.09831 19.6751 7.14062 19.8268 7.14062 20.0039C7.14062 20.1706 7.09896 20.3197 7.01562 20.4512C6.93229 20.5827 6.81641 20.6862 6.66797 20.7617C6.51953 20.8372 6.34831 20.8757 6.1543 20.877H5.61719V21.5996L5.92188 21.6582V22H4.74414ZM6.57422 22L6.0957 20.7715L6.60938 20.6445L7.02344 21.6016L7.26562 21.6582V22H6.57422ZM5.61719 20.4375H6.08203C6.24609 20.4375 6.36849 20.403 6.44922 20.334C6.53125 20.2637 6.57227 20.1621 6.57227 20.0293C6.57227 19.8978 6.5319 19.793 6.45117 19.7148C6.37044 19.6354 6.25065 19.5957 6.0918 19.5957H5.61719V20.4375ZM8.79688 22.041C8.60547 22.041 8.43099 22.0052 8.27344 21.9336C8.11589 21.862 7.97982 21.7617 7.86523 21.6328C7.75195 21.5026 7.66471 21.3503 7.60352 21.1758C7.54232 21 7.51172 20.8079 7.51172 20.5996V20.5566C7.51172 20.3496 7.54232 20.1589 7.60352 19.9844C7.66471 19.8086 7.75195 19.6556 7.86523 19.5254C7.97852 19.3952 8.11393 19.2943 8.27148 19.2227C8.42904 19.151 8.60352 19.1152 8.79492 19.1152C8.98763 19.1152 9.16341 19.151 9.32227 19.2227C9.48112 19.2943 9.61784 19.3952 9.73242 19.5254C9.84701 19.6556 9.9349 19.8086 9.99609 19.9844C10.0586 20.1589 10.0898 20.3496 10.0898 20.5566V20.5996C10.0898 20.8079 10.0586 21 9.99609 21.1758C9.9349 21.3503 9.84701 21.5026 9.73242 21.6328C9.61784 21.7617 9.48112 21.862 9.32227 21.9336C9.16471 22.0052 8.98958 22.041 8.79688 22.041ZM8.79688 21.5977C8.95833 21.5977 9.09245 21.556 9.19922 21.4727C9.30599 21.3893 9.38607 21.2728 9.43945 21.123C9.49414 20.9733 9.52148 20.7988 9.52148 20.5996V20.5527C9.52148 20.3561 9.49414 20.1836 9.43945 20.0352C9.38477 19.8854 9.30339 19.7689 9.19531 19.6855C9.08854 19.6022 8.95508 19.5605 8.79492 19.5605C8.63607 19.5605 8.50391 19.6022 8.39844 19.6855C8.29297 19.7676 8.21354 19.8828 8.16016 20.0312C8.10807 20.1797 8.08203 20.3535 8.08203 20.5527V20.5996C8.08203 20.7988 8.10807 20.9733 8.16016 21.123C8.21354 21.2728 8.29297 21.3893 8.39844 21.4727C8.50521 21.556 8.63802 21.5977 8.79688 21.5977ZM11.7148 22.041C11.4388 22.041 11.1986 21.9837 10.9941 21.8691C10.7897 21.7533 10.6315 21.5898 10.5195 21.3789C10.4089 21.1667 10.3535 20.916 10.3535 20.627V20.5312C10.3535 20.2552 10.4069 20.0111 10.5137 19.7988C10.6217 19.5853 10.7754 19.418 10.9746 19.2969C11.1738 19.1758 11.4108 19.1152 11.6855 19.1152C11.8783 19.1152 12.0586 19.1426 12.2266 19.1973C12.3958 19.252 12.5469 19.3353 12.6797 19.4473V20.1348H12.2559L12.1973 19.7031C12.1543 19.6719 12.1074 19.6452 12.0566 19.623C12.0059 19.6009 11.9505 19.584 11.8906 19.5723C11.832 19.5605 11.7682 19.5547 11.6992 19.5547C11.5378 19.5547 11.3991 19.5944 11.2832 19.6738C11.1673 19.7533 11.0781 19.8659 11.0156 20.0117C10.9544 20.1562 10.9238 20.3281 10.9238 20.5273V20.627C10.9238 20.8262 10.9564 20.9987 11.0215 21.1445C11.0866 21.2904 11.179 21.4036 11.2988 21.4844C11.4186 21.5638 11.5605 21.6035 11.7246 21.6035C11.8066 21.6035 11.8887 21.5944 11.9707 21.5762C12.054 21.5566 12.1296 21.5319 12.1973 21.502L12.2559 21.1016H12.6797V21.7812C12.569 21.8542 12.431 21.916 12.2656 21.9668C12.1003 22.0163 11.9167 22.041 11.7148 22.041ZM13.6973 21.3027L13.4023 20.9648L14.7949 19.5293L14.7988 19.5234L14.5176 19.5V19.1562H15.6875V19.5L15.4199 19.5527L13.6973 21.3027ZM12.9434 22V21.6582L13.2461 21.5996V19.5586L12.9434 19.5V19.1562H14.1055V19.5L13.8164 19.5586V21.5996L14.1055 21.6582V22H12.9434ZM14.5801 22V21.6582L14.8457 21.6348H14.8477L14.125 20.6387L14.502 20.2617L15.5098 21.6094L15.7891 21.6582V22H14.5801ZM15.9629 22V21.6582L16.2656 21.5996V19.5586L15.9629 19.5V19.1562H18.1699V19.9238H17.7324L17.707 19.5957H16.8359V20.3105H17.7988V20.75H16.8359V21.5625H17.7539L17.7793 21.2227H18.2129V22H15.9629ZM19.2109 22V21.6582L19.5156 21.5996V19.5957H18.998L18.9668 19.9355H18.5352V19.1562H21.0723V19.9355H20.6387L20.6074 19.5957H20.0859V21.5996L20.3926 21.6582V22H19.2109ZM21.2715 22V21.6582L21.5742 21.5996V19.5586L21.2715 19.5V19.1562H21.5742H22.418L23.1934 21.1387H23.2051L23.9551 19.1562H25.1035V19.5L24.7988 19.5586V21.5996L25.1035 21.6582V22H23.9258V21.6582L24.2441 21.5996V21.0547L24.2539 19.7715L24.2422 19.7695L23.3926 21.9609H22.9609L22.0918 19.7871L22.0801 19.7891L22.1133 20.9961V21.5996L22.4492 21.6582V22H21.2715ZM26.6094 22.041C26.418 22.041 26.2435 22.0052 26.0859 21.9336C25.9284 21.862 25.7923 21.7617 25.6777 21.6328C25.5645 21.5026 25.4772 21.3503 25.416 21.1758C25.3548 21 25.3242 20.8079 25.3242 20.5996V20.5566C25.3242 20.3496 25.3548 20.1589 25.416 19.9844C25.4772 19.8086 25.5645 19.6556 25.6777 19.5254C25.791 19.3952 25.9264 19.2943 26.084 19.2227C26.2415 19.151 26.416 19.1152 26.6074 19.1152C26.8001 19.1152 26.9759 19.151 27.1348 19.2227C27.2936 19.2943 27.4303 19.3952 27.5449 19.5254C27.6595 19.6556 27.7474 19.8086 27.8086 19.9844C27.8711 20.1589 27.9023 20.3496 27.9023 20.5566V20.5996C27.9023 20.8079 27.8711 21 27.8086 21.1758C27.7474 21.3503 27.6595 21.5026 27.5449 21.6328C27.4303 21.7617 27.2936 21.862 27.1348 21.9336C26.9772 22.0052 26.8021 22.041 26.6094 22.041ZM26.6094 21.5977C26.7708 21.5977 26.9049 21.556 27.0117 21.4727C27.1185 21.3893 27.1986 21.2728 27.252 21.123C27.3066 20.9733 27.334 20.7988 27.334 20.5996V20.5527C27.334 20.3561 27.3066 20.1836 27.252 20.0352C27.1973 19.8854 27.1159 19.7689 27.0078 19.6855C26.901 19.6022 26.7676 19.5605 26.6074 19.5605C26.4486 19.5605 26.3164 19.6022 26.2109 19.6855C26.1055 19.7676 26.026 19.8828 25.9727 20.0312C25.9206 20.1797 25.8945 20.3535 25.8945 20.5527V20.5996C25.8945 20.7988 25.9206 20.9733 25.9727 21.123C26.026 21.2728 26.1055 21.3893 26.2109 21.4727C26.3177 21.556 26.4505 21.5977 26.6094 21.5977ZM29.2129 22L28.2988 19.5312L28.0449 19.5V19.1562H29.1758V19.5L28.9199 19.5391L29.4785 21.2168L29.5215 21.373H29.5332L29.5742 21.2207L30.1328 19.5391L29.834 19.5V19.1562H30.9121V19.5L30.6543 19.5312L29.7969 22H29.2129ZM31.0879 22V21.6582L31.3906 21.5996V19.5586L31.0879 19.5V19.1562H32.2637V19.5L31.9609 19.5586V21.5996L32.2637 21.6582V22H31.0879ZM32.4824 22V21.6582L32.7852 21.5996V19.5586L32.4824 19.5V19.1562H34.6895V19.9238H34.252L34.2266 19.5957H33.3555V20.3105H34.3184V20.75H33.3555V21.5625H34.2734L34.2988 21.2227H34.7324V22H32.4824ZM36.1973 22.041C35.9876 22.041 35.7969 22.0176 35.625 21.9707C35.4531 21.9238 35.2839 21.8424 35.1172 21.7266V21.0391H35.5586L35.6191 21.4434C35.6777 21.4928 35.7585 21.5332 35.8613 21.5645C35.9642 21.5944 36.0762 21.6094 36.1973 21.6094C36.3001 21.6094 36.3867 21.5951 36.457 21.5664C36.5286 21.5378 36.5827 21.4974 36.6191 21.4453C36.6569 21.3919 36.6758 21.3294 36.6758 21.2578C36.6758 21.1901 36.6589 21.1302 36.625 21.0781C36.5924 21.0247 36.5378 20.9766 36.4609 20.9336C36.3854 20.8893 36.2826 20.847 36.1523 20.8066C35.9271 20.7402 35.7402 20.668 35.5918 20.5898C35.4447 20.5104 35.334 20.416 35.2598 20.3066C35.1868 20.196 35.1504 20.0632 35.1504 19.9082C35.1504 19.7546 35.1927 19.6191 35.2773 19.502C35.3633 19.3835 35.4818 19.2904 35.6328 19.2227C35.7839 19.1549 35.9583 19.1198 36.1562 19.1172C36.375 19.1146 36.5684 19.1406 36.7363 19.1953C36.9056 19.25 37.0514 19.3262 37.1738 19.4238V20.0645H36.7461L36.6719 19.6738C36.6224 19.6426 36.5553 19.6152 36.4707 19.5918C36.3874 19.5684 36.2923 19.5566 36.1855 19.5566C36.0944 19.5566 36.0137 19.5703 35.9434 19.5977C35.8743 19.625 35.8197 19.6647 35.7793 19.7168C35.7389 19.7689 35.7188 19.832 35.7188 19.9062C35.7188 19.9701 35.7363 20.026 35.7715 20.0742C35.8066 20.1211 35.8652 20.166 35.9473 20.209C36.0306 20.2507 36.1452 20.2956 36.291 20.3438C36.6048 20.431 36.8424 20.5462 37.0039 20.6895C37.1667 20.8327 37.248 21.0208 37.248 21.2539C37.248 21.4154 37.2044 21.5553 37.1172 21.6738C37.0299 21.791 36.9076 21.8815 36.75 21.9453C36.5924 22.0091 36.4082 22.041 36.1973 22.041Z" fill="#FB365A"/>
</g>
<defs>
<clipPath id="clip0_1237_59">
<rect width="40" height="40" fill="white"/>
</clipPath>
</defs>
</svg>
